<?xml version="1.0" encoding="UTF-8"?>
<svg id="Calque_2" data-name="Calque 2" xmlns="http://www.w3.org/2000/svg" viewBox="0 0 468.67 300.53">
  <defs>
    <style>
      .cls-1 {
        stroke: #fff;
        stroke-miterlimit: 10;
      }

      .cls-1, .cls-2, .cls-3 {
        fill: #0178d4;
      }

      .cls-2 {
        font-family: ArialMT, Arial;
        font-size: 34.18px;
      }

      .cls-2, .cls-4 {
        isolation: isolate;
      }

      .cls-3 {
        stroke-width: 0px;
      }

      .cls-5 {
        letter-spacing: -.02em;
      }
    </style>
  </defs>
  <g id="Calque_1-2" data-name="Calque 1">
    <g class="cls-4">
      <path class="cls-3" d="M35.94,219.95l14.06-1.37c.85,4.72,2.56,8.19,5.15,10.4,2.59,2.21,6.08,3.32,10.47,3.32,4.65,0,8.16-.98,10.52-2.95,2.36-1.97,3.54-4.27,3.54-6.91,0-1.69-.5-3.13-1.49-4.32-.99-1.19-2.73-2.22-5.2-3.1-1.69-.59-5.55-1.63-11.57-3.12-7.75-1.92-13.18-4.28-16.31-7.08-4.39-3.94-6.59-8.74-6.59-14.4,0-3.65,1.03-7.06,3.1-10.23,2.07-3.17,5.05-5.59,8.94-7.25,3.89-1.66,8.59-2.49,14.09-2.49,8.98,0,15.75,1.97,20.29,5.91,4.54,3.94,6.93,9.2,7.15,15.77l-14.45.63c-.62-3.68-1.95-6.32-3.98-7.93-2.03-1.61-5.09-2.42-9.16-2.42s-7.49.86-9.86,2.59c-1.53,1.11-2.29,2.59-2.29,4.44,0,1.69.72,3.14,2.15,4.35,1.82,1.53,6.25,3.12,13.28,4.79s12.23,3.38,15.6,5.15c3.37,1.77,6.01,4.2,7.91,7.28s2.86,6.88,2.86,11.4c0,4.1-1.14,7.94-3.42,11.52-2.28,3.58-5.5,6.24-9.67,7.98-4.17,1.74-9.36,2.61-15.58,2.61-9.05,0-16-2.09-20.85-6.27-4.85-4.18-7.75-10.28-8.69-18.29Z"/>
      <path class="cls-3" d="M111.43,246.98v-71.58h14.45v28.17h28.32v-28.17h14.45v71.58h-14.45v-31.3h-28.32v31.3h-14.45Z"/>
      <path class="cls-3" d="M183.6,246.98v-71.58h53.08v12.11h-38.62v15.87h35.94v12.06h-35.94v19.48h39.99v12.06h-54.44Z"/>
      <path class="cls-3" d="M250.69,246.98v-71h14.45v58.94h35.94v12.06h-50.39Z"/>
      <path class="cls-3" d="M322.22,246.98l-25.59-71.58h15.67l18.12,52.98,17.53-52.98h15.33l-25.63,71.58h-15.43Z"/>
      <path class="cls-3" d="M370.66,246.98v-71.58h53.08v12.11h-38.62v15.87h35.94v12.06h-35.94v19.48h39.99v12.06h-54.44Z"/>
    </g>
    <text class="cls-2" transform="translate(0 289.43)"><tspan x="0" y="0">ER</tspan><tspan class="cls-5" x="47.49" y="0">P</tspan><tspan x="69.67" y="0" xml:space="preserve"> par et pour les archivistes</tspan></text>
    <polygon class="cls-3" points="263.42 146.99 202.25 145.76 201.06 2.67 262.83 0 263.42 146.99"/>
    <polygon class="cls-3" points="304.3 46.53 261.49 18.77 261.63 23.83 304.3 47.48 304.3 46.53"/>
    <polygon class="cls-3" points="304.3 55.81 259.97 44.67 260.11 50.19 304.19 57.42 304.3 55.81"/>
    <polygon class="cls-3" points="304.75 63.31 259.97 74.97 260.12 80.18 304.32 64.69 304.75 63.31"/>
    <polygon class="cls-3" points="303.91 73.75 261.49 112.55 261.63 117.54 303.97 75.6 303.91 73.75"/>
    <polygon class="cls-3" points="304.75 84.55 261.49 141.42 261.63 146.22 304.75 87.08 304.75 84.55"/>
    <rect class="cls-3" x="289.75" y="21.33" width="2.5" height="82.89" transform="translate(582 125.55) rotate(180)"/>
    <rect class="cls-3" x="303.97" y="42.44" width=".65" height="44.01" transform="translate(608.6 128.89) rotate(180)"/>
    <g class="cls-4">
      <path class="cls-1" d="M221.19,80.83l5.34-.58c.32,1.99.97,3.45,1.96,4.38.98.93,2.31,1.4,3.98,1.4,1.77,0,3.1-.41,4-1.24.9-.83,1.34-1.8,1.34-2.91,0-.71-.19-1.32-.57-1.82-.38-.5-1.04-.94-1.98-1.31-.64-.25-2.11-.68-4.4-1.32-2.94-.81-5.01-1.8-6.2-2.98-1.67-1.66-2.5-3.68-2.5-6.06,0-1.53.39-2.97,1.18-4.31.79-1.34,1.92-2.35,3.39-3.05,1.48-.7,3.26-1.05,5.35-1.05,3.41,0,5.98.83,7.71,2.49,1.73,1.66,2.63,3.87,2.72,6.64l-5.49.27c-.24-1.55-.74-2.66-1.51-3.34-.77-.68-1.93-1.02-3.48-1.02s-2.84.36-3.75,1.09c-.58.47-.87,1.09-.87,1.87,0,.71.27,1.32.82,1.83.69.64,2.37,1.32,5.05,2.01s4.65,1.42,5.93,2.17c1.28.75,2.28,1.77,3.01,3.06.72,1.3,1.09,2.9,1.09,4.8,0,1.73-.43,3.34-1.3,4.85-.87,1.51-2.09,2.63-3.67,3.36-1.58.73-3.56,1.1-5.92,1.1-3.44,0-6.08-.88-7.92-2.64-1.84-1.76-2.94-4.33-3.3-7.7Z"/>
    </g>
  </g>
</svg>
