<?xml version="1.0" encoding="UTF-8"?>
<svg id="Calque_2" data-name="Calque 2" xmlns="http://www.w3.org/2000/svg" viewBox="0 0 606.81 168.51">
  <defs>
    <style>
      .cls-1 {
        stroke: #fff;
        stroke-miterlimit: 10;
      }

      .cls-1, .cls-2, .cls-3 {
        fill: #0d5c7c;
      }

      .cls-2 {
        font-family: ArialMT, Arial;
        font-size: 34.18px;
      }

      .cls-2, .cls-4 {
        isolation: isolate;
      }

      .cls-3 {
        stroke-width: 0px;
      }

      .cls-5 {
        letter-spacing: -.02em;
      }
    </style>
  </defs>
  <g id="Calque_1-2" data-name="Calque 1">
    <g class="cls-4">
      <path class="cls-3" d="M145.66,72.22l14.06-1.37c.85,4.72,2.56,8.19,5.15,10.4,2.59,2.21,6.08,3.32,10.47,3.32,4.65,0,8.16-.98,10.52-2.95,2.36-1.97,3.54-4.27,3.54-6.91,0-1.69-.5-3.13-1.49-4.32-.99-1.19-2.73-2.22-5.2-3.1-1.69-.59-5.55-1.63-11.57-3.12-7.75-1.92-13.18-4.28-16.31-7.08-4.39-3.94-6.59-8.74-6.59-14.4,0-3.65,1.03-7.06,3.1-10.23,2.07-3.17,5.05-5.59,8.94-7.25,3.89-1.66,8.59-2.49,14.09-2.49,8.98,0,15.75,1.97,20.29,5.91,4.54,3.94,6.93,9.2,7.15,15.77l-14.45.63c-.62-3.68-1.95-6.32-3.98-7.93-2.03-1.61-5.09-2.42-9.16-2.42s-7.49.86-9.86,2.59c-1.53,1.11-2.29,2.59-2.29,4.44,0,1.69.72,3.14,2.15,4.35,1.82,1.53,6.25,3.12,13.28,4.79s12.23,3.38,15.6,5.15c3.37,1.77,6.01,4.2,7.91,7.28s2.86,6.88,2.86,11.4c0,4.1-1.14,7.94-3.42,11.52-2.28,3.58-5.5,6.24-9.67,7.98-4.17,1.74-9.36,2.61-15.58,2.61-9.05,0-16-2.09-20.85-6.27-4.85-4.18-7.75-10.28-8.69-18.29Z"/>
      <path class="cls-3" d="M221.14,99.26V27.68h14.45v28.17h28.32v-28.17h14.45v71.58h-14.45v-31.3h-28.32v31.3h-14.45Z"/>
      <path class="cls-3" d="M293.31,99.26V27.68h53.08v12.11h-38.62v15.87h35.94v12.06h-35.94v19.48h39.99v12.06h-54.44Z"/>
      <path class="cls-3" d="M360.4,99.26V28.26h14.45v58.94h35.94v12.06h-50.39Z"/>
      <path class="cls-3" d="M431.93,99.26l-25.59-71.58h15.67l18.12,52.98,17.53-52.98h15.33l-25.63,71.58h-15.43Z"/>
      <path class="cls-3" d="M480.37,99.26V27.68h53.08v12.11h-38.62v15.87h35.94v12.06h-35.94v19.48h39.99v12.06h-54.44Z"/>
    </g>
    <text class="cls-2" transform="translate(138.14 139.4)"><tspan x="0" y="0">ER</tspan><tspan class="cls-5" x="47.49" y="0">P</tspan><tspan x="69.67" y="0" xml:space="preserve"> par et pour les archivistes</tspan></text>
    <polygon class="cls-3" points="71.49 168.51 1.36 167.1 0 3.06 70.81 0 71.49 168.51"/>
    <polygon class="cls-3" points="118.35 53.34 69.27 21.52 69.43 27.32 118.35 54.43 118.35 53.34"/>
    <polygon class="cls-3" points="118.35 63.98 67.54 51.21 67.7 57.54 118.22 65.83 118.35 63.98"/>
    <polygon class="cls-3" points="118.87 72.58 67.54 85.95 67.7 91.92 118.37 74.16 118.87 72.58"/>
    <polygon class="cls-3" points="117.91 84.55 69.27 129.03 69.43 134.75 117.98 86.66 117.91 84.55"/>
    <polygon class="cls-3" points="118.87 96.93 69.27 162.12 69.43 167.62 118.87 99.83 118.87 96.93"/>
    <rect class="cls-3" x="101.67" y="24.45" width="2.87" height="95.02" transform="translate(206.21 143.93) rotate(180)"/>
    <rect class="cls-3" x="117.98" y="48.66" width=".75" height="50.45" transform="translate(236.7 147.76) rotate(180)"/>
    <g class="cls-4">
      <path class="cls-1" d="M23.07,92.66l6.12-.66c.37,2.28,1.12,3.95,2.24,5.02,1.13,1.07,2.65,1.6,4.56,1.6,2.03,0,3.55-.48,4.58-1.43,1.03-.95,1.54-2.06,1.54-3.33,0-.82-.22-1.51-.65-2.09-.43-.57-1.19-1.07-2.26-1.5-.74-.28-2.42-.79-5.04-1.51-3.37-.93-5.74-2.07-7.1-3.42-1.91-1.9-2.87-4.22-2.87-6.95,0-1.76.45-3.41,1.35-4.94.9-1.53,2.2-2.7,3.89-3.5,1.69-.8,3.74-1.2,6.14-1.2,3.91,0,6.86.95,8.84,2.85,1.98,1.9,3.02,4.44,3.12,7.61l-6.29.31c-.27-1.78-.85-3.05-1.73-3.83-.89-.78-2.22-1.17-3.99-1.17s-3.26.42-4.3,1.25c-.67.53-1,1.25-1,2.14,0,.82.31,1.52.94,2.1.79.74,2.72,1.51,5.78,2.31s5.33,1.63,6.79,2.49c1.47.86,2.62,2.03,3.45,3.51.83,1.48,1.24,3.32,1.24,5.5,0,1.98-.5,3.83-1.49,5.56-.99,1.73-2.4,3.01-4.21,3.85-1.81.84-4.08,1.26-6.78,1.26-3.94,0-6.97-1.01-9.08-3.03-2.11-2.02-3.37-4.96-3.79-8.83Z"/>
    </g>
  </g>
</svg>