<?xml version="1.0" encoding="UTF-8"?>
<svg id="Calque_2" data-name="Calque 2" xmlns="http://www.w3.org/2000/svg" viewBox="0 0 118.87 168.51">
  <defs>
    <style>
      .cls-1 {
        stroke: #fff;
        stroke-miterlimit: 10;
      }

      .cls-1, .cls-2 {
        fill: #0d5c7c;
      }

      .cls-3 {
        isolation: isolate;
      }

      .cls-2 {
        stroke-width: 0px;
      }
    </style>
  </defs>
  <g id="Calque_1-2" data-name="Calque 1">
    <polygon class="cls-2" points="71.49 168.51 1.36 167.1 0 3.06 70.81 0 71.49 168.51"/>
    <polygon class="cls-2" points="118.35 53.34 69.27 21.52 69.43 27.32 118.35 54.43 118.35 53.34"/>
    <polygon class="cls-2" points="118.35 63.98 67.54 51.21 67.7 57.54 118.22 65.83 118.35 63.98"/>
    <polygon class="cls-2" points="118.87 72.58 67.54 85.95 67.7 91.92 118.37 74.16 118.87 72.58"/>
    <polygon class="cls-2" points="117.91 84.55 69.27 129.03 69.43 134.75 117.98 86.66 117.91 84.55"/>
    <polygon class="cls-2" points="118.87 96.93 69.27 162.12 69.43 167.62 118.87 99.83 118.87 96.93"/>
    <rect class="cls-2" x="101.67" y="24.45" width="2.87" height="95.02" transform="translate(206.21 143.93) rotate(180)"/>
    <rect class="cls-2" x="117.98" y="48.66" width=".75" height="50.45" transform="translate(236.7 147.76) rotate(180)"/>
    <g class="cls-3">
      <path class="cls-1" d="M23.07,92.66l6.12-.66c.37,2.28,1.12,3.95,2.24,5.02,1.13,1.07,2.65,1.6,4.56,1.6,2.03,0,3.55-.48,4.58-1.43,1.03-.95,1.54-2.06,1.54-3.33,0-.82-.22-1.51-.65-2.09-.43-.57-1.19-1.07-2.26-1.5-.74-.28-2.42-.79-5.04-1.51-3.37-.93-5.74-2.07-7.1-3.42-1.91-1.9-2.87-4.22-2.87-6.95,0-1.76.45-3.41,1.35-4.94.9-1.53,2.2-2.7,3.89-3.5,1.69-.8,3.74-1.2,6.14-1.2,3.91,0,6.86.95,8.84,2.85,1.98,1.9,3.02,4.44,3.12,7.61l-6.29.31c-.27-1.78-.85-3.05-1.73-3.83-.89-.78-2.22-1.17-3.99-1.17s-3.26.42-4.3,1.25c-.67.53-1,1.25-1,2.14,0,.82.31,1.52.94,2.1.79.74,2.72,1.51,5.78,2.31s5.33,1.63,6.79,2.49c1.47.86,2.62,2.03,3.45,3.51.83,1.48,1.24,3.32,1.24,5.5,0,1.98-.5,3.83-1.49,5.56-.99,1.73-2.4,3.01-4.21,3.85-1.81.84-4.08,1.26-6.78,1.26-3.94,0-6.97-1.01-9.08-3.03-2.11-2.02-3.37-4.96-3.79-8.83Z"/>
    </g>
  </g>
</svg>